<?xml version="1.0" encoding="UTF-8"?>
<svg xmlns="http://www.w3.org/2000/svg" viewBox="0 0 512 512" width="512" height="512">
  <defs>
    <clipPath id="f-australia-circle-clip">
      <circle cx="256" cy="256" r="256" />
    </clipPath>
  </defs>
  <g clip-path="url(#f-australia-circle-clip)">
    <svg x="0" y="0" width="512" height="512" viewBox="0 0 10080 5040" preserveAspectRatio="xMidYMid slice" overflow="hidden">
<defs>
<clipPath id="f-australia-c1"><path d="M0,0H6V3H0z"/></clipPath>
<clipPath id="f-australia-c2"><path d="M0,0V1.5H6V3H6zM6,0H3V3H0V3z"/></clipPath>
<path id="f-australia-Star7" d="M0,-360 69.421398,-144.155019 281.459334,-224.456329 155.988466,-35.603349 350.974048,80.107536 125.093037,99.758368 156.198146,324.348792 0,160 -156.198146,324.348792 -125.093037,99.758368 -350.974048,80.107536 -155.988466,-35.603349 -281.459334,-224.456329 -69.421398,-144.155019z"/>
<path id="f-australia-Star5" d="M0,-210 54.859957,-75.508253 199.721868,-64.893569 88.765275,28.841586 123.434903,169.893569 0,93.333333 -123.434903,169.893569 -88.765275,28.841586 -199.721868,-64.893569 -54.859957,-75.508253z"/>
</defs>
<g transform="scale(840)">
<rect width="12" height="6" fill="#00008b"/>
<path d="M0,0 6,3M6,0 0,3" stroke="#fff" stroke-width="0.6" clip-path="url(#f-australia-c1)"/>
<path d="M0,0 6,3M6,0 0,3" stroke="#f00" stroke-width="0.4" clip-path="url(#f-australia-c2)"/>
<path d="M3,0V3M0,1.5H6" stroke="#fff"/>
<path d="M3,0V3M0,1.5H6" stroke="#f00" stroke-width="0.6"/>
</g>
<g fill="#fff">
<use id="f-australia-Comwlth" href="#f-australia-Star7" transform="translate(2520, 3780) scale(2.1)"/>
<use id="f-australia-αCrucis" href="#f-australia-Star7" x="7560" y="4200"/>
<use id="f-australia-βCrucis" href="#f-australia-Star7" x="6300" y="2205"/>
<use id="f-australia-γCrucis" href="#f-australia-Star7" x="7560" y="840"/>
<use id="f-australia-δCrucis" href="#f-australia-Star7" x="8680" y="1869"/>
<use id="f-australia-εCrucis" href="#f-australia-Star5" x="8064" y="2730"/>
</g>
    </svg>
  </g>
</svg>
