<?xml version="1.0" encoding="UTF-8"?>
<svg xmlns="http://www.w3.org/2000/svg" viewBox="0 0 512 512" width="512" height="512">
  <defs>
    <clipPath id="f-coreia-do-sul-circle-clip">
      <circle cx="256" cy="256" r="256" />
    </clipPath>
  </defs>
  <g clip-path="url(#f-coreia-do-sul-circle-clip)">
    <svg x="0" y="0" width="512" height="512" viewBox="-72 -48 144 96" preserveAspectRatio="xMidYMid slice" overflow="hidden">
<path fill="#fff" d="M-72-48v96H72v-96z"/><g stroke="#000" stroke-width="4"><path transform="rotate(33.69006752598)" d="M-50-12v24m6 0v-24m6 0v24m76 0V1m0-2v-11m6 0v11m0 2v11m6 0V1m0-2v-11"/><path transform="rotate(-33.69006752598)" d="M-50-12v24m6 0V1m0-2v-11m6 0v24m76 0V1m0-2v-11m6 0v24m6 0V1m0-2v-11"/></g><g transform="rotate(33.69006752598)"><path fill="#cd2e3a" d="M12 0a18 18 0 11-36 0 24 24 0 1148 0"/><path fill="#0047a0" d="M0 0a12 12 0 1124 0 24 24 0 11-48 0 12 12 0 1024 0"/></g>
    </svg>
  </g>
</svg>
